<svg width="8" height="7" viewBox="0 0 8 7" fill="none" xmlns="http://www.w3.org/2000/svg">
<path d="M8 3.81818C8 4.16965 7.72449 4.45455 7.38462 4.45455H0.615385C0.275508 4.45455 0 4.16965 0 3.81818C0 3.46672 0.275508 3.18182 0.615385 3.18182H7.38462C7.72449 3.18182 8 3.46672 8 3.81818ZM1.53846 5.09091H0.615385C0.615385 6.1453 1.44191 7 2.46154 7H5.53846C6.55809 7 7.38462 6.1453 7.38462 5.09091H1.53846ZM1.23077 2.54545H0.615385V1.27273C0.615385 0.5698 1.1664 0 1.84615 0H6.15385C6.8336 0 7.38462 0.5698 7.38462 1.27273V2.54545H1.23077ZM6.15385 1.59091C6.15385 1.76661 6.29163 1.90909 6.46154 1.90909C6.63145 1.90909 6.76923 1.76661 6.76923 1.59091C6.76923 1.41521 6.63145 1.27273 6.46154 1.27273C6.29163 1.27273 6.15385 1.41521 6.15385 1.59091ZM4.92308 0.954545C4.92308 1.13025 5.06086 1.27273 5.23077 1.27273C5.40068 1.27273 5.53846 1.13025 5.53846 0.954545C5.53846 0.778845 5.40068 0.636364 5.23077 0.636364C5.06086 0.636364 4.92308 0.778845 4.92308 0.954545ZM3.69231 1.59091C3.69231 1.76661 3.83009 1.90909 4 1.90909C4.16991 1.90909 4.30769 1.76661 4.30769 1.59091C4.30769 1.41521 4.16991 1.27273 4 1.27273C3.83009 1.27273 3.69231 1.41521 3.69231 1.59091ZM2.46154 0.954545C2.46154 1.13025 2.59932 1.27273 2.76923 1.27273C2.93914 1.27273 3.07692 1.13025 3.07692 0.954545C3.07692 0.778845 2.93914 0.636364 2.76923 0.636364C2.59932 0.636364 2.46154 0.778845 2.46154 0.954545ZM1.23077 1.59091C1.23077 1.76661 1.36855 1.90909 1.53846 1.90909C1.70837 1.90909 1.84615 1.76661 1.84615 1.59091C1.84615 1.41521 1.70837 1.27273 1.53846 1.27273C1.36855 1.27273 1.23077 1.41521 1.23077 1.59091Z" fill="#904D4D"/>
</svg>
